<?xml version="1.0" encoding="UTF-8"?>
<svg version="1.1" xmlns="http://www.w3.org/2000/svg" width="512" height="512">
<path d="M0 0 C1.45341293 0.00323273 1.45341293 0.00323273 2.93618774 0.00653076 C62.83033082 0.22007912 120.90002998 21.03097634 166.4375 60.3125 C167.18257813 60.94671875 167.92765625 61.5809375 168.6953125 62.234375 C182.20029833 74.04551515 194.87168743 86.79610228 205.4375 101.3125 C206.29399066 102.46244831 207.15076433 103.61218589 208.0078125 104.76171875 C214.04784209 112.95184258 219.43117614 121.45629618 224.4375 130.3125 C224.8396875 131.01971191 225.241875 131.72692383 225.65625 132.45556641 C240.40861537 158.65830287 249.94385806 187.59880797 254.4375 217.3125 C254.61410156 218.43495117 254.79070312 219.55740234 254.97265625 220.71386719 C256.6295586 232.32697743 256.83623513 243.84429945 256.8125 255.5625 C256.81168427 257.08052216 256.81168427 257.08052216 256.81085205 258.62921143 C256.77011956 275.15780572 255.86674222 291.09163999 252.4375 307.3125 C252.21787598 308.35438477 251.99825195 309.39626953 251.77197266 310.46972656 C241.67435215 356.76299311 219.31521242 399.17663721 186.4375 433.3125 C185.80537598 433.97185547 185.17325195 434.63121094 184.52197266 435.31054688 C175.37752521 444.79880305 166.08015991 453.5387044 155.4375 461.3125 C154.28644983 462.17056152 153.13540823 463.02863451 151.984375 463.88671875 C143.79319386 469.92486829 135.27945895 475.28345521 126.4375 480.3125 C125.80569824 480.67698242 125.17389648 481.04146484 124.52294922 481.41699219 C98.49354716 496.31535669 69.07639511 505.95897542 39.4375 510.3125 C38.23287109 510.48982666 37.02824219 510.66715332 35.78710938 510.84985352 C24.12982646 512.448825 12.56563902 512.6709053 0.8125 512.625 C-0.64233292 512.62226578 -0.64233292 512.62226578 -2.1265564 512.61947632 C-16.47806055 512.57408309 -30.44192918 512.0687347 -44.5625 509.3125 C-45.45952637 509.15152832 -46.35655273 508.99055664 -47.28076172 508.82470703 C-90.88561969 500.93444853 -132.02240471 481.24485057 -165.5625 452.3125 C-166.30757813 451.67828125 -167.05265625 451.0440625 -167.8203125 450.390625 C-181.32529833 438.57948485 -193.99668743 425.82889772 -204.5625 411.3125 C-205.41899066 410.16255169 -206.27576433 409.01281411 -207.1328125 407.86328125 C-213.17284209 399.67315742 -218.55617614 391.16870382 -223.5625 382.3125 C-223.9646875 381.60528809 -224.366875 380.89807617 -224.78125 380.16943359 C-237.8066741 357.03404164 -246.55551461 331.86287591 -251.875 305.875 C-252.02235596 305.15610596 -252.16971191 304.43721191 -252.3215332 303.6965332 C-255.29539088 288.05024391 -255.93550362 272.57681954 -255.875 256.6875 C-255.87284485 255.66959381 -255.8706897 254.65168762 -255.86846924 253.60293579 C-255.81879854 238.99386477 -255.56790191 224.66174147 -252.5625 210.3125 C-252.36382324 209.33764648 -252.16514648 208.36279297 -251.96044922 207.35839844 C-241.83982806 158.9765226 -219.9233123 114.98821731 -185.5625 79.3125 C-184.93037598 78.65314453 -184.29825195 77.99378906 -183.64697266 77.31445312 C-174.50252521 67.82619695 -165.20515991 59.0862956 -154.5625 51.3125 C-153.41144983 50.45443848 -152.26040823 49.59636549 -151.109375 48.73828125 C-142.91819386 42.70013171 -134.40445895 37.34154479 -125.5625 32.3125 C-124.93069824 31.94801758 -124.29889648 31.58353516 -123.64794922 31.20800781 C-97.61870909 16.30973599 -68.20132148 6.66564734 -38.5625 2.3125 C-36.75446899 2.04651001 -36.75446899 2.04651001 -34.90991211 1.77514648 C-23.27388483 0.17985199 -11.73175476 -0.04703114 0 0 Z " fill="#14CEFE" transform="translate(255.5625,-0.31250000000000006)"/>
<path d="M0 0 C0 42.24 0 84.48 0 128 C-8.22823301 128 -16.16081826 127.92720803 -24.3125 127.1875 C-25.80595947 127.05275269 -25.80595947 127.05275269 -27.32958984 126.9152832 C-35.68290863 126.11391996 -43.80420915 124.82192013 -52 123 C-52.79051758 122.83129395 -53.58103516 122.66258789 -54.39550781 122.48876953 C-71.16346031 118.88921481 -87.18274392 113.62286601 -103 107 C-122.67175469 153.89345008 -125.99573041 205.89326034 -128 256 C-85.76 256 -43.52 256 0 256 C0 340.48 0 424.96 0 512 C-25.56087873 512 -25.56087873 512 -33.4375 510.8125 C-34.37883789 510.6779541 -35.32017578 510.5434082 -36.29003906 510.40478516 C-84.20729697 503.23549765 -129.21937358 483.72769691 -166 452 C-166.74507813 451.36578125 -167.49015625 450.7315625 -168.2578125 450.078125 C-181.76279833 438.26698485 -194.43418743 425.51639772 -205 411 C-205.85649066 409.85005169 -206.71326433 408.70031411 -207.5703125 407.55078125 C-213.61034209 399.36065742 -218.99367614 390.85620382 -224 382 C-224.4021875 381.29278809 -224.804375 380.58557617 -225.21875 379.85693359 C-238.2441741 356.72154164 -246.99301461 331.55037591 -252.3125 305.5625 C-252.45985596 304.84360596 -252.60721191 304.12471191 -252.7590332 303.3840332 C-255.73289088 287.73774391 -256.37300362 272.26431954 -256.3125 256.375 C-256.31034485 255.35709381 -256.3081897 254.33918762 -256.30596924 253.29043579 C-256.25629854 238.68136477 -256.00540191 224.34924147 -253 210 C-252.80132324 209.02514648 -252.60264648 208.05029297 -252.39794922 207.04589844 C-242.27732806 158.6640226 -220.3608123 114.67571731 -186 79 C-185.36787598 78.34064453 -184.73575195 77.68128906 -184.08447266 77.00195312 C-174.94002521 67.51369695 -165.64265991 58.7737956 -155 51 C-153.84894983 50.14193848 -152.69790823 49.28386549 -151.546875 48.42578125 C-143.35569386 42.38763171 -134.84195895 37.02904479 -126 32 C-125.36819824 31.63551758 -124.73639648 31.27103516 -124.08544922 30.89550781 C-97.92438864 15.92178635 -68.69618022 6.66741193 -39 2 C-38.27296875 1.88285645 -37.5459375 1.76571289 -36.796875 1.64501953 C-24.3971388 -0.28669863 -12.71888703 0 0 0 Z " fill="#14CEFE" transform="translate(256,0)"/>
<path d="M0 0 C0 42.24 0 84.48 0 128 C-8.22823301 128 -16.16081826 127.92720803 -24.3125 127.1875 C-25.80595947 127.05275269 -25.80595947 127.05275269 -27.32958984 126.9152832 C-35.68290863 126.11391996 -43.80420915 124.82192013 -52 123 C-52.79051758 122.83129395 -53.58103516 122.66258789 -54.39550781 122.48876953 C-71.16346031 118.88921481 -87.18274392 113.62286601 -103 107 C-122.67175469 153.89345008 -125.99573041 205.89326034 -128 256 C-170.24 256 -212.48 256 -256 256 C-256 189.57195128 -232.28170215 127.05279072 -186 79 C-185.36787598 78.34064453 -184.73575195 77.68128906 -184.08447266 77.00195312 C-174.94002521 67.51369695 -165.64265991 58.7737956 -155 51 C-153.84894983 50.14193848 -152.69790823 49.28386549 -151.546875 48.42578125 C-143.35569386 42.38763171 -134.84195895 37.02904479 -126 32 C-125.36819824 31.63551758 -124.73639648 31.27103516 -124.08544922 30.89550781 C-97.92438864 15.92178635 -68.69618022 6.66741193 -39 2 C-38.27296875 1.88285645 -37.5459375 1.76571289 -36.796875 1.64501953 C-24.3971388 -0.28669863 -12.71888703 0 0 0 Z " fill="#8AE7FF" transform="translate(256,0)"/>
<path d="M0 0 C42.24 0 84.48 0 128 0 C128 26.77715434 128 26.77715434 126.375 36.9375 C126.19751221 38.10152344 126.02002441 39.26554687 125.8371582 40.46484375 C117.60319976 91.88778317 94.13254513 139.48474993 58 177 C57.36787598 177.65935547 56.73575195 178.31871094 56.08447266 178.99804688 C46.94002521 188.48630305 37.64265991 197.2262044 27 205 C25.84894983 205.85806152 24.69790823 206.71613451 23.546875 207.57421875 C15.35569386 213.61236829 6.84195895 218.97095521 -2 224 C-2.63180176 224.36448242 -3.26360352 224.72896484 -3.91455078 225.10449219 C-37.3309368 244.23092076 -79.15189418 257.34733315 -118 256 C-115.21202597 254.14135065 -112.94863916 253.33827035 -109.75927734 252.45483398 C-79.85177211 244.0845388 -59.22495533 219.27724554 -44.39331055 193.12939453 C-11.28012109 133.05816066 -3.14003823 67.51082202 0 0 Z " fill="#3A87F4" transform="translate(384,256)"/>
<path d="M0 0 C42.24 0 84.48 0 128 0 C128 74.66862481 115.57168115 162.07789284 65 221 C64.19175781 221.95390625 63.38351562 222.9078125 62.55078125 223.890625 C48.88137509 239.64601303 30.94653082 252.42261496 10 256 C6.7 256 3.4 256 0 256 C0 171.52 0 87.04 0 0 Z " fill="#28AAF9" transform="translate(256,256)"/>
<path d="M0 0 C42.24 0 84.48 0 128 0 C128.99 20.79 128.99 20.79 130 42 C130.81254978 50.40989021 131.69336926 58.67235809 133 67 C133.10203735 67.6529303 133.20407471 68.3058606 133.3092041 68.97857666 C137.06536619 92.90807418 141.2815919 116.32344896 149.49755859 139.1862793 C149.83609863 140.14703369 150.17463867 141.10778809 150.5234375 142.09765625 C150.83200684 142.94851807 151.14057617 143.79937988 151.45849609 144.67602539 C152.069284 147.29734645 152.13639539 148.55862665 151 151 C149.16845703 152.2734375 149.16845703 152.2734375 146.7578125 153.375 C145.86570068 153.796604 144.97358887 154.21820801 144.05444336 154.65258789 C143.08772705 155.09723389 142.12101074 155.54187988 141.125 156 C125.19433748 163.64811919 110.73439192 172.90112653 97 184 C96.00484375 184.79148437 95.0096875 185.58296875 93.984375 186.3984375 C91.64936965 188.25731047 89.32131552 190.12408362 87 192 C81.24353827 189.54150259 77.27936886 184.61759397 72.9375 180.25 C72.46468597 179.7756955 71.99187195 179.30139099 71.50473022 178.81271362 C64.03041905 171.29587978 57.19009093 163.59977735 51 155 C50.14823199 153.85335128 49.29534537 152.70753275 48.44140625 151.5625 C42.39396867 143.37089798 37.00901588 134.86096602 32 126 C31.5978125 125.29278809 31.195625 124.58557617 30.78125 123.85693359 C16.18018945 97.9229405 6.81800319 69.33516936 2 40 C1.88285645 39.29391602 1.76571289 38.58783203 1.64501953 37.86035156 C-0.37561519 25.12404774 0 13.0611289 0 0 Z " fill="#4EDAFF" transform="translate(0,256)"/>
<path d="M0 0 C5.75646173 2.45849741 9.72063114 7.38240603 14.0625 11.75 C14.77172104 12.46145676 14.77172104 12.46145676 15.49526978 13.18728638 C22.96958095 20.70412022 29.80990907 28.40022265 36 37 C36.85176801 38.14664872 37.70465463 39.29246725 38.55859375 40.4375 C44.60603133 48.62910202 49.99098412 57.13903398 55 66 C55.60328125 67.06081787 55.60328125 67.06081787 56.21875 68.14306641 C71.03754615 94.46379535 80.21816647 123.23667111 85 153 C85.11714355 153.68932617 85.23428711 154.37865234 85.35498047 155.08886719 C87.43463894 167.52973645 87 179.16819225 87 192 C44.76 192 2.52 192 -41 192 C-41.99 171.21 -41.99 171.21 -43 150 C-46.28541774 118.89804537 -50.35029707 86.85952822 -60.8984375 57.22265625 C-62.60419703 52.2324023 -63.82336902 47.13699867 -65 42 C-64.49774902 41.73896484 -63.99549805 41.47792969 -63.47802734 41.20898438 C-57.63678315 38.16786249 -51.81142533 35.0977303 -46 32 C-45.34 31.6484082 -44.68 31.29681641 -44 30.93457031 C-30.46569718 23.65543047 -17.93978403 14.73730616 -6.19921875 4.83984375 C-4.18056978 3.15106282 -2.12065623 1.55773604 0 0 Z " fill="#28AAF9" transform="translate(425,64)"/>
<path d="M0 0 C0.61182129 0.24121582 1.22364258 0.48243164 1.85400391 0.73095703 C16.37171457 6.41532596 30.84847867 11.3096851 46 15 C46.68271973 15.16725586 47.36543945 15.33451172 48.06884766 15.50683594 C66.54206323 19.94957979 84.96299896 20.68710338 104 22 C104 64.24 104 106.48 104 150 C61.76 150 19.52 150 -24 150 C-24 120.43539252 -24 120.43539252 -23.3125 111.0625 C-23.22637451 109.87833496 -23.14024902 108.69416992 -23.05151367 107.47412109 C-20.15792725 71.39683879 -13.75168799 33.57350102 0 0 Z " fill="#4FDBFF" transform="translate(152,106)"/>
<path d="M0 0 C0 42.24 0 84.48 0 128 C-8.22823301 128 -16.16081826 127.92720803 -24.3125 127.1875 C-25.80595947 127.05275269 -25.80595947 127.05275269 -27.32958984 126.9152832 C-35.68290863 126.11391996 -43.80420915 124.82192013 -52 123 C-52.79051758 122.83129395 -53.58103516 122.66258789 -54.39550781 122.48876953 C-87.38275805 115.4074391 -119.60685279 101.84580312 -147 82 C-148.05316406 81.23945312 -149.10632813 80.47890625 -150.19140625 79.6953125 C-156.97859439 74.6851021 -163.51822122 69.39722918 -170 64 C-135.01900576 27.83543829 -82.17440121 8.15348982 -33.4375 1.1875 C-32.6134668 1.0632666 -31.78943359 0.9390332 -30.94042969 0.81103516 C-20.55574376 -0.52504093 -10.65948095 0 0 0 Z " fill="#8AE7FF" transform="translate(256,0)"/>
<path d="M0 0 C10.23 0 20.46 0 31 0 C32.63559526 63.78821525 8.00417992 127.30308239 -35.86328125 173.734375 C-36.90722425 174.8244799 -37.95294855 175.91288043 -39 177 C-39.63212402 177.65935547 -40.26424805 178.31871094 -40.91552734 178.99804688 C-50.05997479 188.48630305 -59.35734009 197.2262044 -70 205 C-71.15105017 205.85806152 -72.30209177 206.71613451 -73.453125 207.57421875 C-81.64430614 213.61236829 -90.15804105 218.97095521 -99 224 C-99.63180176 224.36448242 -100.26360352 224.72896484 -100.91455078 225.10449219 C-134.3309368 244.23092076 -176.15189418 257.34733315 -215 256 C-212.21202597 254.14135065 -209.94863916 253.33827035 -206.75927734 252.45483398 C-176.85637024 244.08582569 -156.21191948 219.27636521 -141.3918457 193.12426758 C-135.16194534 181.83263584 -129.97078696 170.18288033 -124.99169922 158.296875 C-123.7697131 155.46663241 -122.42549829 152.73258459 -121 150 C-104.92662851 155.72385072 -90.0730059 165.06089424 -76.41723633 175.16625977 C-73.04539794 177.65003847 -70.03117299 179.68211652 -66 181 C-55.00426584 167.24488008 -44.66379775 153.35921577 -36 138 C-35.5978125 137.2874707 -35.195625 136.57494141 -34.78125 135.84082031 C-20.4444365 110.15776301 -10.22415683 81.97382922 -5 53 C-4.86255371 52.24638184 -4.72510742 51.49276367 -4.58349609 50.71630859 C-1.62817026 33.92547381 -0.94044861 17.00041727 0 0 Z " fill="#396FD8" transform="translate(481,256)"/>
<path d="M0 0 C23.34939759 0 23.34939759 0 31.0625 1.125 C32.00182373 1.25696777 32.94114746 1.38893555 33.90893555 1.52490234 C57.80507804 5.08202893 82.50852485 10.62367423 104 22 C94.27217976 47.66930563 83.0098189 72.01638912 65 93 C64.19175781 93.95390625 63.38351562 94.9078125 62.55078125 95.890625 C48.88137509 111.64601303 30.94653082 124.42261496 10 128 C6.7 128 3.4 128 0 128 C0 85.76 0 43.52 0 0 Z " fill="#3A87F4" transform="translate(256,384)"/>
<path d="M0 0 C0 42.24 0 84.48 0 128 C-19.03836255 128 -35.85304186 120.67180524 -50 108 C-50.80566406 107.32453125 -51.61132812 106.6490625 -52.44140625 105.953125 C-74.72812508 86.84025815 -88.82401466 59.67514326 -100 33 C-100.31469238 32.2668457 -100.62938477 31.53369141 -100.95361328 30.77832031 C-103.43553267 24.69642392 -103.43553267 24.69642392 -102 21 C-73.5721254 3.64550372 -32.38029393 0 0 0 Z " fill="#27ABFA" transform="translate(256,384)"/>
<path d="M0 0 C24.37873689 0 43.09794557 12.18419992 59.89453125 28.8359375 C76.15806974 45.8207488 87.39422037 66.57460784 97.125 87.8125 C97.49133545 88.60567627 97.8576709 89.39885254 98.23510742 90.21606445 C100.54250218 95.41307319 101.92197531 100.41538755 103 106 C81.76067081 120.33766038 49.93126045 124.44653715 25.0625 127.25 C24.37937744 127.33016357 23.69625488 127.41032715 22.99243164 127.49291992 C15.27724674 128.27176553 7.86034971 128 0 128 C0 85.76 0 43.52 0 0 Z " fill="#4EDAFF" transform="translate(256,0)"/>
<path d="M0 0 C0 0.33 0 0.66 0 1 C-0.969375 1.12375 -1.93875 1.2475 -2.9375 1.375 C-28.33349019 5.09437245 -48.82477047 21.94867105 -64.05859375 41.92578125 C-69.23550323 48.95756493 -73.6961675 56.41099358 -78 64 C-78.43054688 64.75796875 -78.86109375 65.5159375 -79.3046875 66.296875 C-85.07223421 76.5735946 -89.88235915 87.06292314 -94.13330078 98.05566406 C-94.65512939 99.39322754 -94.65512939 99.39322754 -95.1875 100.7578125 C-95.64189453 101.95108154 -95.64189453 101.95108154 -96.10546875 103.16845703 C-97 105 -97 105 -99 106 C-100.94506836 105.29418945 -100.94506836 105.29418945 -103.33984375 104.11328125 C-104.67317749 103.45670532 -104.67317749 103.45670532 -106.03344727 102.78686523 C-106.99178467 102.30032471 -107.95012207 101.81378418 -108.9375 101.3125 C-110.41464478 100.56625366 -110.41464478 100.56625366 -111.92163086 99.80493164 C-126.58910705 92.26324033 -140.20517665 83.3947376 -153 73 C-153.53189941 72.56961426 -154.06379883 72.13922852 -154.61181641 71.69580078 C-157.75690613 69.14932616 -160.88559859 66.58389215 -164 64 C-124.07953415 22.7288417 -56.81177914 -2.22629613 0 0 Z " fill="#C3F2FF" transform="translate(250,0)"/>
<path d="M0 0 C5.75646173 2.45849741 9.72063114 7.38240603 14.0625 11.75 C14.53531403 12.2243045 15.00812805 12.69860901 15.49526978 13.18728638 C22.96958095 20.70412022 29.80990907 28.40022265 36 37 C36.85176801 38.14664872 37.70465463 39.29246725 38.55859375 40.4375 C44.60603133 48.62910202 49.99098412 57.13903398 55 66 C55.60328125 67.06081787 55.60328125 67.06081787 56.21875 68.14306641 C71.03754615 94.46379535 80.21816647 123.23667111 85 153 C85.11714355 153.68932617 85.23428711 154.37865234 85.35498047 155.08886719 C87.4143588 167.40841721 87.14839541 179.53478577 87 192 C76.77 192 66.54 192 56 192 C55.7525 187.771875 55.505 183.54375 55.25 179.1875 C54.29977281 164.64902393 52.46233449 150.36282561 50 136 C49.86400391 135.1642041 49.72800781 134.3284082 49.58789062 133.46728516 C41.99322961 87.6198201 18.57889942 45.2229297 -11 10 C-7.50640535 6.40365256 -3.88901869 3.16548033 0 0 Z " fill="#3A88F5" transform="translate(425,64)"/>
<path d="M0 0 C7.18686916 -0.21949852 13.97963522 0.35725866 21.0625 1.5625 C22.61191284 1.82595215 22.61191284 1.82595215 24.19262695 2.09472656 C68.90888007 10.12132604 115.50784888 30.50784888 148 63 C144.37 65.97 140.74 68.94 137 72 C133.42181428 70.21090714 131.83054862 69.04280924 129.1640625 66.25390625 C128.43703125 65.50447754 127.71 64.75504883 126.9609375 63.98291016 C126.19007813 63.1841748 125.41921875 62.38543945 124.625 61.5625 C117.17574747 53.99834514 109.64805594 47.14957529 101 41 C100.34660645 40.52933105 99.69321289 40.05866211 99.02001953 39.57373047 C69.10243801 18.21607714 36.32598187 5.83216095 0 1 C0 0.67 0 0.34 0 0 Z " fill="#27ACFA" transform="translate(278,1)"/>
<path d="M0 0 C3.79793279 1.31697144 6.35328268 2.91656381 9.3125 5.625 C10.35857422 6.57246094 10.35857422 6.57246094 11.42578125 7.5390625 C11.94527344 8.02117187 12.46476563 8.50328125 13 9 C-19.17631839 42.26499081 -67.3479232 61.80045332 -112 70 C-112.69351562 70.12987305 -113.38703125 70.25974609 -114.1015625 70.39355469 C-120.80499453 71.62458619 -127.18800912 72.23091495 -134 72 C-134 71.67 -134 71.34 -134 71 C-132.71867187 70.82984375 -131.43734375 70.6596875 -130.1171875 70.484375 C-119.75430237 69.05494221 -109.96490892 67.24411854 -100 64 C-98.80246094 63.63003906 -97.60492188 63.26007813 -96.37109375 62.87890625 C-58.26991317 50.76122108 -27.65046102 28.35444848 0 0 Z " fill="#3757BC" transform="translate(413,439)"/>
</svg>
